<?xml version="1.0"?><svg width="640" height="480" xmlns="http://www.w3.org/2000/svg">
 <metadata id="metadata7">image/svg+xml</metadata>
 <g>
  <path fill="#ffffff" stroke="#000000" stroke-width="5" stroke-miterlimit="4" id="rect2391" d="m394.805786,223.095795l0,0zm0,0l-162.812485,-144.1875l-162.90625,144.25l0,206.125c0,5.323364 4.30162,9.59375 9.625,9.59375l101.812515,0l0,-90.375c0,-5.323425 4.270355,-9.625 9.59375,-9.625l83.656219,0c5.323364,0 9.59375,4.301636 9.59375,9.625l0,90.375l101.84375,0c5.323364,0 9.593781,-4.270325 9.59375,-9.59375l0,-206.1875zm-325.718735,0.0625l0,0z"/>
  <path fill="#ffffff" stroke="#000000" stroke-width="5" stroke-miterlimit="4" id="path2399" d="m231.048508,0l-231.048504,204.583557l24.338306,27.457397l207.655388,-183.884186l207.608109,183.884186l24.291046,-27.457397l-231.001236,-204.583557l-0.897919,1.039703l-0.94519,-1.039703z"/>
  <path fill="#ffffff" stroke="#000000" stroke-width="5" stroke-miterlimit="4" id="rect2404" d="m69.087051,29.449036l58.571434,0l-0.510376,34.691101l-58.061058,52.451752l0,-87.142853z"/>
  <title>Layer 1</title>
 </g>
</svg>